<svg width="31" height="29" viewBox="0 0 31 29" fill="none" xmlns="http://www.w3.org/2000/svg">
<g clip-path="url(#clip0_239_149)">
<path d="M31 14.0503C31 17.7697 29.367 21.3368 26.4602 23.9669C23.5533 26.597 19.6109 28.0745 15.5 28.0745C11.3891 28.0745 7.44666 26.597 4.53984 23.9669C1.63303 21.3368 0 17.7697 0 14.0503C0 10.3308 1.63303 6.76366 4.53984 4.13361C7.44666 1.50355 11.3891 0.0259933 15.5 0.0259933C19.6109 0.0259933 23.5533 1.50355 26.4602 4.13361C29.367 6.76366 31 10.3308 31 14.0503ZM16.4688 7.91464C16.4688 7.68217 16.3667 7.45923 16.185 7.29485C16.0033 7.13047 15.7569 7.03813 15.5 7.03813C15.2431 7.03813 14.9967 7.13047 14.815 7.29485C14.6333 7.45923 14.5312 7.68217 14.5312 7.91464V13.1737H8.71875C8.46182 13.1737 8.21542 13.2661 8.03374 13.4305C7.85206 13.5948 7.75 13.8178 7.75 14.0503C7.75 14.2827 7.85206 14.5057 8.03374 14.67C8.21542 14.8344 8.46182 14.9268 8.71875 14.9268H14.5312V20.1859C14.5312 20.4183 14.6333 20.6413 14.815 20.8057C14.9967 20.97 15.2431 21.0624 15.5 21.0624C15.7569 21.0624 16.0033 20.97 16.185 20.8057C16.3667 20.6413 16.4688 20.4183 16.4688 20.1859V14.9268H22.2812C22.5382 14.9268 22.7846 14.8344 22.9663 14.67C23.1479 14.5057 23.25 14.2827 23.25 14.0503C23.25 13.8178 23.1479 13.5948 22.9663 13.4305C22.7846 13.2661 22.5382 13.1737 22.2812 13.1737H16.4688V7.91464Z" fill="black"/>
</g>
<defs>
<clipPath id="clip0_239_149">
<rect width="31" height="28.0485" fill="white" transform="translate(0 0.0259933)"/>
</clipPath>
</defs>
</svg>
