<svg width="25" height="24" viewBox="0 0 25 24" fill="none" xmlns="http://www.w3.org/2000/svg">
<path d="M18.3476 14.9219C19.8605 13.019 20.5381 10.6598 20.2449 8.31616C19.9516 5.97256 18.7092 3.81743 16.766 2.28194C14.8229 0.746453 12.3224 -0.0561616 9.76484 0.0346726C7.20726 0.125507 4.7812 1.10309 2.97202 2.77185C1.16285 4.4406 0.103978 6.67746 0.00725994 9.03491C-0.089458 11.3924 0.783107 13.6965 2.45039 15.4865C4.11766 17.2764 6.4567 18.4201 8.99953 18.6887C11.5424 18.9573 14.1015 18.331 16.1649 16.9352H16.1633C16.2091 16.9928 16.2602 17.048 16.3164 17.1008L22.3318 22.6453C22.6248 22.9156 23.0222 23.0675 23.4367 23.0676C23.8512 23.0677 24.2487 22.9161 24.5419 22.6461C24.8351 22.376 24.9999 22.0097 25 21.6277C25.0001 21.2456 24.8356 20.8792 24.5427 20.609L18.5273 15.0644C18.4714 15.0123 18.4114 14.9656 18.3476 14.9219ZM18.7507 9.38597C18.7507 10.4261 18.5284 11.4561 18.0966 12.4171C17.6647 13.3781 17.0317 14.2513 16.2337 14.9868C15.4358 15.7223 14.4884 16.3057 13.4458 16.7038C12.4032 17.1019 11.2858 17.3067 10.1573 17.3067C9.02877 17.3067 7.91131 17.1019 6.86871 16.7038C5.82611 16.3057 4.87877 15.7223 4.0808 14.9868C3.28283 14.2513 2.64984 13.3781 2.21798 12.4171C1.78612 11.4561 1.56384 10.4261 1.56384 9.38597C1.56384 7.28525 2.46922 5.27057 4.0808 3.78514C5.69238 2.2997 7.87815 1.4652 10.1573 1.4652C12.4364 1.4652 14.6222 2.2997 16.2337 3.78514C17.8453 5.27057 18.7507 7.28525 18.7507 9.38597Z" fill="black"/>
</svg>
