<svg width="8" height="22" viewBox="0 0 8 22" fill="none" xmlns="http://www.w3.org/2000/svg">
<path d="M2.66667 2.97096V1.65619C2.66667 1.30749 2.80714 0.973072 3.05719 0.726504C3.30724 0.479936 3.64638 0.341415 4 0.341415C4.35362 0.341415 4.69276 0.479936 4.94281 0.726504C5.19286 0.973072 5.33333 1.30749 5.33333 1.65619V2.97096H6.66667C7.02029 2.97096 7.35943 3.10949 7.60948 3.35605C7.85952 3.60262 8 3.93704 8 4.28574C8 4.63444 7.85952 4.96886 7.60948 5.21543C7.35943 5.46199 7.02029 5.60051 6.66667 5.60051H1.33333C0.979711 5.60051 0.640573 5.46199 0.390524 5.21543C0.140476 4.96886 0 4.63444 0 4.28574C0 3.93704 0.140476 3.60262 0.390524 3.35605C0.640573 3.10949 0.979711 2.97096 1.33333 2.97096H2.66667ZM2.66667 10.8596V9.54484C2.66667 9.19614 2.80714 8.86172 3.05719 8.61515C3.30724 8.36858 3.64638 8.23006 4 8.23006C4.35362 8.23006 4.69276 8.36858 4.94281 8.61515C5.19286 8.86172 5.33333 9.19614 5.33333 9.54484V10.8596H6.66667C7.02029 10.8596 7.35943 10.9981 7.60948 11.2447C7.85952 11.4913 8 11.8257 8 12.1744C8 12.5231 7.85952 12.8575 7.60948 13.1041C7.35943 13.3506 7.02029 13.4892 6.66667 13.4892H1.33333C0.979711 13.4892 0.640573 13.3506 0.390524 13.1041C0.140476 12.8575 0 12.5231 0 12.1744C0 11.8257 0.140476 11.4913 0.390524 11.2447C0.640573 10.9981 0.979711 10.8596 1.33333 10.8596H2.66667ZM2.66667 18.7483V17.4335C2.66667 17.0848 2.80714 16.7504 3.05719 16.5038C3.30724 16.2572 3.64638 16.1187 4 16.1187C4.35362 16.1187 4.69276 16.2572 4.94281 16.5038C5.19286 16.7504 5.33333 17.0848 5.33333 17.4335V18.7483H6.66667C7.02029 18.7483 7.35943 18.8868 7.60948 19.1334C7.85952 19.3799 8 19.7143 8 20.063C8 20.4117 7.85952 20.7462 7.60948 20.9927C7.35943 21.2393 7.02029 21.3778 6.66667 21.3778H1.33333C0.979711 21.3778 0.640573 21.2393 0.390524 20.9927C0.140476 20.7462 0 20.4117 0 20.063C0 19.7143 0.140476 19.3799 0.390524 19.1334C0.640573 18.8868 0.979711 18.7483 1.33333 18.7483H2.66667Z" fill="black"/>
</svg>
