<svg width="36" height="43" viewBox="0 0 36 43" fill="none" xmlns="http://www.w3.org/2000/svg">
<path d="M5.14286 0.322357H30.8571C32.2211 0.322357 33.5292 0.876439 34.4937 1.86271C35.4582 2.84898 36 4.18666 36 5.58146V37.1361C36 38.5308 35.4582 39.8685 34.4937 40.8548C33.5292 41.8411 32.2211 42.3951 30.8571 42.3951H5.14286C3.77889 42.3951 2.47078 41.8411 1.50631 40.8548C0.541835 39.8685 0 38.5308 0 37.1361V34.5065H2.57143V37.1361C2.57143 37.8335 2.84235 38.5023 3.32458 38.9954C3.80682 39.4886 4.46087 39.7656 5.14286 39.7656H30.8571C31.5391 39.7656 32.1932 39.4886 32.6754 38.9954C33.1577 38.5023 33.4286 37.8335 33.4286 37.1361V5.58146C33.4286 4.88406 33.1577 4.21522 32.6754 3.72208C32.1932 3.22895 31.5391 2.95191 30.8571 2.95191H5.14286C4.46087 2.95191 3.80682 3.22895 3.32458 3.72208C2.84235 4.21522 2.57143 4.88406 2.57143 5.58146V8.21101H0V5.58146C0 4.18666 0.541835 2.84898 1.50631 1.86271C2.47078 0.876439 3.77889 0.322357 5.14286 0.322357Z" fill="black"/>
</svg>
