<svg width="40" height="38" viewBox="0 0 40 38" fill="none" xmlns="http://www.w3.org/2000/svg">
<path d="M21.2454 3.15968C19.1418 3.15836 17.0914 3.99795 15.3861 5.55894C13.6808 7.11992 12.4075 9.32277 11.7475 11.8539C11.7009 12.0586 11.6222 12.2493 11.5161 12.4145C11.4101 12.5797 11.2788 12.7162 11.1301 12.8156C10.9815 12.915 10.8185 12.9755 10.651 12.9932C10.4835 13.011 10.3149 12.9858 10.1552 12.9191C9.9956 12.8524 9.84822 12.7455 9.72193 12.6049C9.59564 12.4644 9.49302 12.2929 9.42022 12.101C9.34743 11.909 9.30594 11.7003 9.29826 11.4875C9.29057 11.2747 9.31684 11.0622 9.37549 10.8626C10.2431 7.5426 11.9531 4.67971 14.2391 2.72025C16.5251 0.760783 19.2585 -0.18512 22.0131 0.0300162C24.7677 0.245152 27.3887 1.60924 29.4675 3.90959C31.5463 6.20994 32.966 9.31727 33.5053 12.7471C35.3906 13.0698 37.1085 14.2884 38.3113 16.1562C39.514 18.0239 40.1115 20.4012 39.9828 22.8063C39.8541 25.2114 39.0088 27.4647 37.6181 29.1096C36.2275 30.7545 34.3954 31.6682 32.493 31.6654H11.2476C10.9161 31.6654 10.5983 31.4985 10.3639 31.2016C10.1295 30.9046 9.99785 30.5018 9.99785 30.0817C9.99785 29.6617 10.1295 29.2589 10.3639 28.9619C10.5983 28.6649 10.9161 28.4981 11.2476 28.4981H32.493C33.8188 28.4985 35.0905 27.8315 36.0282 26.6439C36.9659 25.4562 37.4929 23.8451 37.4932 22.1651C37.4935 20.485 36.9672 18.8736 36.0299 17.6854C35.0927 16.4971 33.8213 15.8293 32.4955 15.8289H32.4305C32.1216 15.8313 31.8229 15.6885 31.5921 15.4282C31.3613 15.168 31.2148 14.8086 31.1808 14.4194C30.9073 11.3228 29.7428 8.46259 27.9099 6.38541C26.077 4.30823 23.7044 3.15981 21.2454 3.15968ZM0 17.4125C0 16.9925 0.131668 16.5897 0.366038 16.2927C0.600408 15.9957 0.918282 15.8289 1.24973 15.8289H13.747C14.0785 15.8289 14.3964 15.9957 14.6307 16.2927C14.8651 16.5897 14.9968 16.9925 14.9968 17.4125C14.9968 17.8326 14.8651 18.2354 14.6307 18.5324C14.3964 18.8293 14.0785 18.9962 13.747 18.9962H1.24973C0.918282 18.9962 0.600408 18.8293 0.366038 18.5324C0.131668 18.2354 0 17.8326 0 17.4125ZM4.99893 23.7471C4.99893 23.3271 5.1306 22.9243 5.36497 22.6273C5.59934 22.3303 5.91721 22.1635 6.24866 22.1635H28.7438C29.0753 22.1635 29.3932 22.3303 29.6275 22.6273C29.8619 22.9243 29.9936 23.3271 29.9936 23.7471C29.9936 24.1672 29.8619 24.57 29.6275 24.867C29.3932 25.1639 29.0753 25.3308 28.7438 25.3308H6.24866C5.91721 25.3308 5.59934 25.1639 5.36497 24.867C5.1306 24.57 4.99893 24.1672 4.99893 23.7471ZM0 36.4163C0 35.9963 0.131668 35.5935 0.366038 35.2965C0.600408 34.9995 0.918282 34.8327 1.24973 34.8327H23.7449C24.0764 34.8327 24.3942 34.9995 24.6286 35.2965C24.863 35.5935 24.9946 35.9963 24.9946 36.4163C24.9946 36.8364 24.863 37.2392 24.6286 37.5362C24.3942 37.8332 24.0764 38 23.7449 38H1.24973C0.918282 38 0.600408 37.8332 0.366038 37.5362C0.131668 37.2392 0 36.8364 0 36.4163Z" fill="black"/>
</svg>
