<svg width="20" height="34" viewBox="0 0 20 34" fill="none" xmlns="http://www.w3.org/2000/svg">
<path d="M1.28782 2.68317C0.859278 2.65254 0.429712 2.6372 0 2.63718V0.216644C0.491465 0.216876 0.982754 0.234639 1.47287 0.269896L1.28782 2.68317ZM6.29907 3.7724C5.4975 3.47297 4.67424 3.23107 3.83596 3.04867L4.3836 0.686227C5.34384 0.894393 6.2824 1.17033 7.1993 1.51405L6.29907 3.7724ZM9.72493 5.49098C9.36742 5.26016 9.00124 5.04217 8.62716 4.83744L9.85996 2.73158C10.7151 3.20033 11.5333 3.72944 12.3081 4.3146L10.7702 6.2244C10.4312 5.96839 10.0825 5.72456 9.72493 5.4934V5.49098ZM14.3111 9.82373C13.8164 9.14356 13.2706 8.49957 12.6782 7.89699L14.4886 6.22682C15.1655 6.9191 15.7881 7.65332 16.3566 8.42951L14.3111 9.82373ZM16.1715 13.0963C16.0076 12.7125 15.8291 12.3346 15.6364 11.9635L17.8695 10.8742C18.3109 11.7241 18.687 12.6044 18.9947 13.5078L16.6192 14.2654C16.4848 13.8705 16.3355 13.4805 16.1715 13.0963ZM17.4969 19.1646C17.4766 18.3327 17.393 17.5035 17.2468 16.6835L19.7099 16.272C19.8766 17.208 19.9733 18.152 20 19.104L17.4969 19.1646ZM17.1693 22.8873C17.2526 22.4775 17.3202 22.066 17.3718 21.6529L19.855 21.9506C19.7345 22.8949 19.5422 23.8293 19.2798 24.7463L16.8692 24.1C16.9842 23.7014 17.0843 23.2972 17.1693 22.8873ZM14.7887 28.6458C15.2488 27.9422 15.6539 27.2096 16.004 26.4479L18.2896 27.4283C17.8895 28.2996 17.4269 29.1372 16.9017 29.9408L14.7887 28.6458ZM12.3781 31.5625C12.6832 31.2672 12.9749 30.9622 13.2533 30.6476L15.1488 32.2282C14.8279 32.5885 14.4934 32.9373 14.146 33.2738L12.3781 31.5625Z" fill="black"/>
</svg>
