<svg width="11" height="22" viewBox="0 0 11 22" fill="none" xmlns="http://www.w3.org/2000/svg">
<path d="M1.22502 0.228775C1.54991 0.228775 1.8615 0.359238 2.09124 0.591462C2.32097 0.823686 2.45004 1.13865 2.45004 1.46707V14.37L10.4078 18.9666C10.6817 19.1336 10.8801 19.4023 10.9606 19.7152C11.0411 20.0282 10.9973 20.3605 10.8386 20.6412C10.6799 20.922 10.4189 21.1288 10.1113 21.2176C9.80368 21.3064 9.47395 21.27 9.19254 21.1163L0.617409 16.1631C0.429915 16.0548 0.27406 15.8984 0.165636 15.7096C0.0572114 15.5209 6.96473e-05 15.3065 0 15.0883V1.46707C0 1.13865 0.129064 0.823686 0.3588 0.591462C0.588535 0.359238 0.900123 0.228775 1.22502 0.228775Z" fill="black"/>
</svg>
