<svg width="41" height="36" viewBox="0 0 41 36" fill="none" xmlns="http://www.w3.org/2000/svg">
<path d="M5.125 0.124786C3.76577 0.124786 2.4622 0.740433 1.50108 1.83629C0.539954 2.93215 0 4.41845 0 5.96823L0 29.342C0 30.8918 0.539954 32.3781 1.50108 33.4739C2.4622 34.5698 3.76577 35.1854 5.125 35.1854H35.875C37.2342 35.1854 38.5378 34.5698 39.4989 33.4739C40.46 32.3781 41 30.8918 41 29.342V5.96823C41 4.41845 40.46 2.93215 39.4989 1.83629C38.5378 0.740433 37.2342 0.124786 35.875 0.124786H5.125ZM32.7949 32.2637C31.6341 28.5531 28.2849 23.4986 20.5 23.4986C12.7177 23.4986 9.36594 28.5531 8.20512 32.2637H5.125C4.44538 32.2637 3.7936 31.9559 3.31304 31.408C2.83248 30.86 2.5625 30.1169 2.5625 29.342V5.96823C2.5625 5.19334 2.83248 4.45019 3.31304 3.90226C3.7936 3.35433 4.44538 3.04651 5.125 3.04651H35.875C36.5546 3.04651 37.2064 3.35433 37.687 3.90226C38.1675 4.45019 38.4375 5.19334 38.4375 5.96823V29.342C38.4375 30.1169 38.1675 30.86 37.687 31.408C37.2064 31.9559 36.5546 32.2637 35.875 32.2637H32.7949Z" fill="black"/>
</svg>
