<svg width="44" height="45" viewBox="0 0 44 45" fill="none" xmlns="http://www.w3.org/2000/svg">
<path d="M5.5 3.17939C4.77065 3.17939 4.07118 3.46962 3.55546 3.98624C3.03973 4.50286 2.75 5.20354 2.75 5.93415V38.9913C2.75 39.722 3.03973 40.4226 3.55546 40.9393C4.07118 41.4559 4.77065 41.7461 5.5 41.7461H38.5C39.2293 41.7461 39.9288 41.4559 40.4445 40.9393C40.9603 40.4226 41.25 39.722 41.25 38.9913V5.93415C41.25 5.20354 40.9603 4.50286 40.4445 3.98624C39.9288 3.46962 39.2293 3.17939 38.5 3.17939H26.125C25.3957 3.17939 24.6962 3.46962 24.1805 3.98624C23.6647 4.50286 23.375 5.20354 23.375 5.93415V26.0247L30.6515 18.7328C30.9097 18.4742 31.2599 18.3289 31.625 18.3289C31.9901 18.3289 32.3403 18.4742 32.5985 18.7328C32.8567 18.9914 33.0017 19.3422 33.0017 19.708C33.0017 20.0737 32.8567 20.4245 32.5985 20.6832L22.9735 30.3249C22.8458 30.4531 22.694 30.5549 22.527 30.6243C22.3599 30.6938 22.1809 30.7295 22 30.7295C21.8191 30.7295 21.6401 30.6938 21.473 30.6243C21.306 30.5549 21.1542 30.4531 21.0265 30.3249L11.4015 20.6832C11.2737 20.5551 11.1722 20.4031 11.1031 20.2358C11.0339 20.0684 10.9983 19.8891 10.9983 19.708C10.9983 19.5269 11.0339 19.3475 11.1031 19.1802C11.1722 19.0129 11.2737 18.8609 11.4015 18.7328C11.5293 18.6047 11.6811 18.5031 11.8481 18.4338C12.0152 18.3645 12.1942 18.3289 12.375 18.3289C12.5558 18.3289 12.7348 18.3645 12.9019 18.4338C13.0689 18.5031 13.2207 18.6047 13.3485 18.7328L20.625 26.0247V5.93415C20.625 4.47293 21.2045 3.07156 22.2359 2.03833C23.2674 1.00509 24.6663 0.424622 26.125 0.424622L38.5 0.424622C39.9587 0.424622 41.3576 1.00509 42.3891 2.03833C43.4205 3.07156 44 4.47293 44 5.93415V38.9913C44 40.4526 43.4205 41.8539 42.3891 42.8872C41.3576 43.9204 39.9587 44.5009 38.5 44.5009H5.5C4.04131 44.5009 2.64236 43.9204 1.61091 42.8872C0.579463 41.8539 0 40.4526 0 38.9913V5.93415C0 4.47293 0.579463 3.07156 1.61091 2.03833C2.64236 1.00509 4.04131 0.424622 5.5 0.424622L12.375 0.424622C12.7397 0.424622 13.0894 0.569738 13.3473 0.828048C13.6051 1.08636 13.75 1.4367 13.75 1.802C13.75 2.16731 13.6051 2.51765 13.3473 2.77596C13.0894 3.03427 12.7397 3.17939 12.375 3.17939H5.5Z" fill="black"/>
</svg>
