<svg width="15" height="20" viewBox="0 0 15 20" fill="none" xmlns="http://www.w3.org/2000/svg">
<path fill-rule="evenodd" clip-rule="evenodd" d="M3.05703e-06 0.32756H15V18.089C15 18.3135 14.9414 18.5339 14.8301 18.7279C14.7188 18.9219 14.5587 19.0824 14.3663 19.193C14.1739 19.3037 13.956 19.3606 13.7348 19.3579C13.5137 19.3551 13.2972 19.2929 13.1075 19.1775L7.5 15.7623L1.8925 19.1801C1.70261 19.2956 1.4859 19.3578 1.26454 19.3604C1.04318 19.363 0.825101 19.3059 0.632611 19.1949C0.440121 19.084 0.280122 18.9231 0.168973 18.7288C0.0578238 18.5345 -0.00048647 18.3137 3.05703e-06 18.089V0.32756Z" fill="black"/>
</svg>
