<svg width="34" height="40" viewBox="0 0 34 40" fill="none" xmlns="http://www.w3.org/2000/svg">
<path d="M19.9197 2.65806C17.0546 2.65827 14.2337 3.35154 11.707 4.67648C9.18025 6.00142 7.02562 7.91713 5.43393 10.2539C3.84225 12.5907 2.86264 15.2765 2.58188 18.0733C2.30112 20.8702 2.72788 23.6918 3.82434 26.2882C4.92081 28.8846 6.65315 31.1758 8.86792 32.9586C11.0827 34.7415 13.7115 35.9612 16.5216 36.5095C19.3317 37.0578 22.2362 36.9179 24.978 36.1022C27.7198 35.2865 30.2142 33.8201 32.2403 31.833L34 33.5591C31.6846 35.8315 28.8335 37.5087 25.6993 38.4419C22.5651 39.3752 19.2447 39.5358 16.0321 38.9094C12.8195 38.2831 9.81407 36.8892 7.28199 34.8512C4.74991 32.8132 2.7694 30.194 1.51594 27.2258C0.262483 24.2576 -0.225229 21.0319 0.0960202 17.8346C0.417269 14.6373 1.53756 11.567 3.35763 8.89593C5.17771 6.22482 7.64137 4.03529 10.5303 2.52135C13.4193 1.00741 16.6443 0.215793 19.9197 0.216645V2.65806Z" fill="black"/>
</svg>
